<svg width="120" height="42" viewBox="0 0 120 42" fill="none" xmlns="http://www.w3.org/2000/svg">
<g clip-path="url(#clip0_1_3)">
<path d="M46.7203 26.7405H37.4434C37.7754 28.4597 39.2128 29.5595 41.2727 29.5595C42.4761 29.6082 43.6456 29.1428 44.4832 28.2832L45.9696 29.9799C44.9057 31.2373 43.2457 31.8979 41.2047 31.8979C37.2435 31.8979 34.6743 29.3643 34.6743 25.8584C34.6743 22.3526 37.2661 19.8527 40.786 19.8527C44.3059 19.8527 46.7656 22.2512 46.7656 25.9335C46.7656 26.1474 46.743 26.4778 46.7203 26.7405ZM37.4208 24.9125H44.1285C43.9512 23.2272 42.4874 21.9735 40.786 22.0485C39.0845 21.9847 37.6207 23.2309 37.4208 24.9125Z" fill="#39A3DB"/>
<path d="M60.1208 15.3934V31.744H57.461V30.2238C56.533 31.3499 55.1597 31.8979 53.5413 31.8979C50.1082 31.8979 47.5616 29.5182 47.5616 25.8584C47.5616 22.1987 50.1082 19.8527 53.5413 19.8527C54.9862 19.7889 56.3821 20.3707 57.3516 21.4367V15.3934H60.1208ZM57.3969 25.8584C57.3969 23.6063 55.869 22.1799 53.8733 22.1799C51.8775 22.1799 50.3534 23.61 50.3534 25.8584C50.3534 28.1068 51.8813 29.5407 53.8733 29.5407C55.8652 29.5407 57.3969 28.1068 57.3969 25.8584Z" fill="#39A3DB"/>
<path d="M74.1776 15.3934V31.744H71.5367V30.2238C70.6049 31.3499 69.2354 31.8979 67.617 31.8979C64.1839 31.8979 61.6373 29.5182 61.6373 25.8584C61.6373 22.1987 64.1839 19.8527 67.617 19.8527C69.0619 19.7889 70.4578 20.3707 71.4273 21.4367V15.3934H74.1776ZM71.4537 25.8584C71.4537 23.6063 69.9258 22.1799 67.9339 22.1799C65.9419 22.1799 64.414 23.61 64.414 25.8584C64.414 28.1068 65.923 29.5407 67.9339 29.5407C69.9447 29.5407 71.4537 28.1068 71.4537 25.8584Z" fill="#39A3DB"/>
<path d="M76.5505 17.1238C76.5656 16.1967 77.3315 15.4573 78.2595 15.4723C78.2784 15.4723 78.2973 15.4723 78.3199 15.4723C79.3385 15.4723 80.093 16.1554 80.093 17.06C80.0704 18.0322 79.2555 18.8054 78.2784 18.7792C77.3579 18.7567 76.6071 18.036 76.5505 17.1238ZM76.9278 20.0554H79.6969V31.8229H76.9278V20.0554Z" fill="#39A3DB"/>
<path d="M94.9987 25.8584C94.9987 29.5181 92.4484 31.8979 88.9965 31.8979C87.5666 31.9467 86.1858 31.3687 85.2238 30.3102V36.1245H82.4547V19.9841H85.0956V21.5268C86.0236 20.4007 87.3969 19.8527 89.0153 19.8527C92.4484 19.8452 94.9987 22.2249 94.9987 25.8584ZM92.1843 25.8584C92.1843 23.6063 90.6753 22.1799 88.6871 22.1799C86.6989 22.1799 85.1635 23.61 85.1635 25.8584C85.1635 28.1068 86.6725 29.5407 88.6871 29.5407C90.7017 29.5407 92.1843 28.1068 92.1843 25.8584Z" fill="#969696"/>
<path d="M106.49 24.845V31.744H103.88V30.3102C103.212 31.3236 101.929 31.8979 100.156 31.8979C97.4547 31.8979 95.7495 30.419 95.7495 28.3696C95.7495 26.3201 97.0775 24.8675 100.654 24.8675H103.714V24.6911C103.714 23.0845 102.736 22.1349 100.767 22.1349C99.4731 22.1199 98.213 22.5327 97.1793 23.3022L96.1117 21.2978C97.3755 20.3294 99.2128 19.8452 101.118 19.8452C104.521 19.8452 106.49 21.4517 106.49 24.845ZM103.725 28.0618V26.688H100.865C98.9789 26.688 98.4733 27.3936 98.4733 28.2532C98.4733 29.2442 99.3146 29.8823 100.737 29.8823C102.084 29.8898 103.257 29.2742 103.725 28.0618Z" fill="#969696"/>
<path d="M120 19.9766L114.466 32.6937C113.379 35.3587 111.874 36.1733 109.901 36.1733C108.75 36.1958 107.63 35.8129 106.735 35.096L107.841 33.0691C108.395 33.587 109.123 33.8761 109.882 33.8836C110.855 33.8836 111.429 33.4219 111.961 32.2545L112.16 31.7891L106.999 19.9803H109.882L113.602 28.6849L117.344 19.9803H120V19.9766Z" fill="#969696"/>
<path d="M35.4591 41.4246C35.278 41.4246 30.9961 41.3908 28.4873 38.3204C26.8499 36.3235 26.3746 33.6059 27.0725 30.2352C27.8006 26.7368 30.3774 21.7446 32.8711 16.9175C34.4367 13.8921 36.0514 10.7616 37.1077 8.18664C38.5376 4.69956 38.398 3.49842 38.2697 3.14183C38.2546 3.063 38.198 2.99544 38.1188 2.96916C38.1188 2.96916 36.8776 2.72893 32.905 7.47346C30.2642 10.6377 27.363 14.8342 24.8089 18.539C23.1754 20.9038 21.6362 23.1334 20.4214 24.7061C18.9651 26.5829 17.739 28.0055 16.3016 27.5288C14.4417 26.9132 14.9133 24.526 15.0869 23.6476C15.3434 22.3677 15.8414 20.7536 16.3469 19.042C16.8525 17.3304 17.4108 15.5211 17.7315 13.9972C17.8409 13.5017 17.9201 12.9987 17.9767 12.4958C17.1279 13.7757 15.9508 15.9002 14.9586 17.7132C10.9898 24.8863 6.48525 33.0203 1.60346 33.3694C0.781024 33.4332 0.0679962 32.8214 0.00386138 32.0031C-0.0602734 31.1848 0.554666 30.4754 1.3771 30.4116C1.38087 30.4116 1.38842 30.4116 1.39219 30.4116C2.29762 30.3478 3.93872 29.4995 6.59088 25.8285C8.63188 22.9983 10.6087 19.4474 12.3479 16.2831C15.4604 10.6527 16.7506 8.33303 18.6482 8.5695C19.3914 8.65584 20.0554 9.06873 20.4591 9.69558C21.6286 11.486 20.7684 14.7441 19.2104 19.8978C18.9878 20.6485 18.7237 21.5119 18.4898 22.3527C19.6593 20.7799 21.0967 18.6967 22.3643 16.8649C30.0454 5.72429 35.3723 -1.46382 39.3072 0.251569C40.1409 0.604405 40.7861 1.29506 41.0765 2.14713C42.1367 5.10495 39.6844 10.2136 35.5195 18.2875C33.1201 22.9382 30.6339 27.7465 29.9925 30.8508C29.4832 33.3018 29.7549 35.1899 30.7961 36.4811C32.3957 38.4367 35.4289 38.4893 35.4591 38.4893C36.2815 38.4893 36.9493 39.1499 36.9493 39.972C36.9493 40.7902 36.2853 41.4546 35.4591 41.4546V41.4246Z" fill="#39A3DB"/>
</g>
<defs>
<clipPath id="clip0_1_3">
<rect width="120" height="41.4545" fill="white"/>
</clipPath>
</defs>
</svg>
